<mxfile host="Electron" modified="2023-04-07T18:55:39.146Z" agent="Mozilla/5.0 (Windows NT 10.0; Win64; x64) AppleWebKit/537.36 (KHTML, like Gecko) draw.io/21.1.2 Chrome/106.0.5249.199 Electron/21.4.3 Safari/537.36" etag="rmNl24JSvpMSHFd3XezD" version="21.1.2" type="device">
  <diagram name="Page-1" id="8378b5f6-a2b2-b727-a746-972ab9d02e00">
    <mxGraphModel dx="714" dy="423" grid="1" gridSize="10" guides="1" tooltips="1" connect="0" arrows="1" fold="1" page="1" pageScale="1.5" pageWidth="1169" pageHeight="827" background="none" math="0" shadow="0">
      <root>
        <mxCell id="0" />
        <mxCell id="1" parent="0" />
        <mxCell id="dSflc-zfxmTfq78oVU8J-356" value="" style="strokeColor=#DEEDFF" parent="1" vertex="1">
          <mxGeometry x="1626.5000000000016" y="380.0000000000366" width="20" height="520" as="geometry" />
        </mxCell>
        <mxCell id="dSflc-zfxmTfq78oVU8J-338" value="" style="strokeColor=#DEEDFF" parent="1" vertex="1">
          <mxGeometry x="766.500000000002" y="380.00000000000387" width="20" height="520" as="geometry" />
        </mxCell>
        <mxCell id="dSflc-zfxmTfq78oVU8J-339" value="" style="strokeColor=#DEEDFF" parent="1" vertex="1">
          <mxGeometry x="786.500000000002" y="380.00000000000387" width="20" height="520" as="geometry" />
        </mxCell>
        <mxCell id="dSflc-zfxmTfq78oVU8J-340" value="" style="strokeColor=#DEEDFF" parent="1" vertex="1">
          <mxGeometry x="806.500000000002" y="380.00000000000387" width="20" height="520" as="geometry" />
        </mxCell>
        <mxCell id="dSflc-zfxmTfq78oVU8J-341" value="" style="strokeColor=#DEEDFF" parent="1" vertex="1">
          <mxGeometry x="886.500000000002" y="380.00000000000387" width="20" height="520" as="geometry" />
        </mxCell>
        <mxCell id="dSflc-zfxmTfq78oVU8J-342" value="" style="strokeColor=#DEEDFF" parent="1" vertex="1">
          <mxGeometry x="926.500000000002" y="380.00000000000387" width="20" height="520" as="geometry" />
        </mxCell>
        <mxCell id="dSflc-zfxmTfq78oVU8J-343" value="" style="strokeColor=#DEEDFF" parent="1" vertex="1">
          <mxGeometry x="946.500000000002" y="380.00000000000387" width="20" height="520" as="geometry" />
        </mxCell>
        <mxCell id="dSflc-zfxmTfq78oVU8J-344" value="" style="strokeColor=#DEEDFF" parent="1" vertex="1">
          <mxGeometry x="1046.5000000000018" y="380.00000000000387" width="20" height="520" as="geometry" />
        </mxCell>
        <mxCell id="dSflc-zfxmTfq78oVU8J-345" value="" style="strokeColor=#DEEDFF" parent="1" vertex="1">
          <mxGeometry x="1066.5000000000018" y="380.00000000000387" width="20" height="520" as="geometry" />
        </mxCell>
        <mxCell id="dSflc-zfxmTfq78oVU8J-346" value="" style="strokeColor=#DEEDFF" parent="1" vertex="1">
          <mxGeometry x="1086.5000000000018" y="380.00000000000387" width="20" height="520" as="geometry" />
        </mxCell>
        <mxCell id="dSflc-zfxmTfq78oVU8J-347" value="" style="strokeColor=#DEEDFF" parent="1" vertex="1">
          <mxGeometry x="1206.5000000000018" y="380.00000000000387" width="20" height="520" as="geometry" />
        </mxCell>
        <mxCell id="dSflc-zfxmTfq78oVU8J-348" value="" style="strokeColor=#DEEDFF" parent="1" vertex="1">
          <mxGeometry x="1226.5000000000018" y="380.00000000000387" width="20" height="520" as="geometry" />
        </mxCell>
        <mxCell id="dSflc-zfxmTfq78oVU8J-350" value="" style="strokeColor=#DEEDFF" parent="1" vertex="1">
          <mxGeometry x="1346.5000000000016" y="380.0000000000257" width="20" height="520" as="geometry" />
        </mxCell>
        <mxCell id="dSflc-zfxmTfq78oVU8J-351" value="" style="strokeColor=#DEEDFF" parent="1" vertex="1">
          <mxGeometry x="1366.5000000000016" y="380.0000000000257" width="20" height="520" as="geometry" />
        </mxCell>
        <mxCell id="dSflc-zfxmTfq78oVU8J-352" value="" style="strokeColor=#DEEDFF" parent="1" vertex="1">
          <mxGeometry x="1446.5000000000016" y="380.0000000000257" width="20" height="520" as="geometry" />
        </mxCell>
        <mxCell id="dSflc-zfxmTfq78oVU8J-353" value="" style="strokeColor=#DEEDFF" parent="1" vertex="1">
          <mxGeometry x="1466.5000000000016" y="380.0000000000257" width="20" height="520" as="geometry" />
        </mxCell>
        <mxCell id="dSflc-zfxmTfq78oVU8J-354" value="" style="strokeColor=#DEEDFF" parent="1" vertex="1">
          <mxGeometry x="1486.5000000000016" y="380.0000000000257" width="20" height="520" as="geometry" />
        </mxCell>
        <mxCell id="dSflc-zfxmTfq78oVU8J-355" value="" style="strokeColor=#DEEDFF" parent="1" vertex="1">
          <mxGeometry x="1506.5000000000016" y="380.0000000000257" width="20" height="520" as="geometry" />
        </mxCell>
        <mxCell id="dSflc-zfxmTfq78oVU8J-291" value="W1" style="fillColor=#23445D;strokeColor=#FFFFFF;strokeWidth=2;fontColor=#FFFFFF;fontStyle=1;fontSize=10;" parent="1" vertex="1">
          <mxGeometry x="926.5000000000018" y="360.0000000000001" width="20" height="20" as="geometry" />
        </mxCell>
        <mxCell id="dSflc-zfxmTfq78oVU8J-292" value="W2" style="fillColor=#23445D;strokeColor=#FFFFFF;strokeWidth=2;fontColor=#FFFFFF;fontStyle=1;fontSize=10;" parent="1" vertex="1">
          <mxGeometry x="946.5000000000018" y="360.0000000000001" width="20" height="20" as="geometry" />
        </mxCell>
        <mxCell id="dSflc-zfxmTfq78oVU8J-293" value="W3" style="fillColor=#23445D;strokeColor=#FFFFFF;strokeWidth=2;fontColor=#FFFFFF;fontStyle=1;fontSize=10;" parent="1" vertex="1">
          <mxGeometry x="966.5000000000018" y="360.0000000000001" width="20" height="20" as="geometry" />
        </mxCell>
        <mxCell id="dSflc-zfxmTfq78oVU8J-294" value="W4" style="fillColor=#23445D;strokeColor=#FFFFFF;strokeWidth=2;fontColor=#FFFFFF;fontStyle=1;fontSize=10;" parent="1" vertex="1">
          <mxGeometry x="986.5000000000018" y="360.0000000000001" width="20" height="20" as="geometry" />
        </mxCell>
        <mxCell id="dSflc-zfxmTfq78oVU8J-295" value="Month 4" style="fillColor=#23445D;strokeColor=#FFFFFF;strokeWidth=2;fontColor=#FFFFFF;fontStyle=1" parent="1" vertex="1">
          <mxGeometry x="926.5" y="340" width="80" height="20" as="geometry" />
        </mxCell>
        <mxCell id="dSflc-zfxmTfq78oVU8J-296" value="W1" style="fillColor=#23445D;strokeColor=#FFFFFF;strokeWidth=2;fontColor=#FFFFFF;fontStyle=1;fontSize=10;" parent="1" vertex="1">
          <mxGeometry x="1006.5000000000018" y="360.0000000000001" width="20" height="20" as="geometry" />
        </mxCell>
        <mxCell id="dSflc-zfxmTfq78oVU8J-297" value="W2" style="fillColor=#23445D;strokeColor=#FFFFFF;strokeWidth=2;fontColor=#FFFFFF;fontStyle=1;fontSize=10;" parent="1" vertex="1">
          <mxGeometry x="1026.5000000000018" y="360.0000000000001" width="20" height="20" as="geometry" />
        </mxCell>
        <mxCell id="dSflc-zfxmTfq78oVU8J-298" value="W3" style="fillColor=#23445D;strokeColor=#FFFFFF;strokeWidth=2;fontColor=#FFFFFF;fontStyle=1;fontSize=10;" parent="1" vertex="1">
          <mxGeometry x="1046.5000000000018" y="360.0000000000001" width="20" height="20" as="geometry" />
        </mxCell>
        <mxCell id="dSflc-zfxmTfq78oVU8J-299" value="W4" style="fillColor=#23445D;strokeColor=#FFFFFF;strokeWidth=2;fontColor=#FFFFFF;fontStyle=1;fontSize=10;" parent="1" vertex="1">
          <mxGeometry x="1066.5000000000018" y="360.0000000000001" width="20" height="20" as="geometry" />
        </mxCell>
        <mxCell id="dSflc-zfxmTfq78oVU8J-300" value="Month 5" style="fillColor=#23445D;strokeColor=#FFFFFF;strokeWidth=2;fontColor=#FFFFFF;fontStyle=1" parent="1" vertex="1">
          <mxGeometry x="1006.5" y="340" width="80" height="20" as="geometry" />
        </mxCell>
        <mxCell id="dSflc-zfxmTfq78oVU8J-301" value="W1" style="fillColor=#23445D;strokeColor=#FFFFFF;strokeWidth=2;fontColor=#FFFFFF;fontStyle=1;fontSize=10;" parent="1" vertex="1">
          <mxGeometry x="1086.5000000000018" y="360.0000000000001" width="20" height="20" as="geometry" />
        </mxCell>
        <mxCell id="dSflc-zfxmTfq78oVU8J-302" value="W2" style="fillColor=#23445D;strokeColor=#FFFFFF;strokeWidth=2;fontColor=#FFFFFF;fontStyle=1;fontSize=10;" parent="1" vertex="1">
          <mxGeometry x="1106.5000000000018" y="360.0000000000001" width="20" height="20" as="geometry" />
        </mxCell>
        <mxCell id="dSflc-zfxmTfq78oVU8J-303" value="W3" style="fillColor=#23445D;strokeColor=#FFFFFF;strokeWidth=2;fontColor=#FFFFFF;fontStyle=1;fontSize=10;" parent="1" vertex="1">
          <mxGeometry x="1126.5000000000018" y="360.0000000000001" width="20" height="20" as="geometry" />
        </mxCell>
        <mxCell id="dSflc-zfxmTfq78oVU8J-304" value="W4" style="fillColor=#23445D;strokeColor=#FFFFFF;strokeWidth=2;fontColor=#FFFFFF;fontStyle=1;fontSize=10;" parent="1" vertex="1">
          <mxGeometry x="1146.5000000000018" y="360.0000000000001" width="20" height="20" as="geometry" />
        </mxCell>
        <mxCell id="dSflc-zfxmTfq78oVU8J-305" value="Month 6" style="fillColor=#23445D;strokeColor=#FFFFFF;strokeWidth=2;fontColor=#FFFFFF;fontStyle=1" parent="1" vertex="1">
          <mxGeometry x="1086.5" y="340" width="80" height="20" as="geometry" />
        </mxCell>
        <mxCell id="dSflc-zfxmTfq78oVU8J-306" value="W1" style="fillColor=#23445D;strokeColor=#FFFFFF;strokeWidth=2;fontColor=#FFFFFF;fontStyle=1;fontSize=10;" parent="1" vertex="1">
          <mxGeometry x="1166.5000000000018" y="360.0000000000001" width="20" height="20" as="geometry" />
        </mxCell>
        <mxCell id="dSflc-zfxmTfq78oVU8J-307" value="W2" style="fillColor=#23445D;strokeColor=#FFFFFF;strokeWidth=2;fontColor=#FFFFFF;fontStyle=1;fontSize=10;" parent="1" vertex="1">
          <mxGeometry x="1186.5000000000018" y="360.0000000000001" width="20" height="20" as="geometry" />
        </mxCell>
        <mxCell id="dSflc-zfxmTfq78oVU8J-308" value="W3" style="fillColor=#23445D;strokeColor=#FFFFFF;strokeWidth=2;fontColor=#FFFFFF;fontStyle=1;fontSize=10;" parent="1" vertex="1">
          <mxGeometry x="1206.5000000000018" y="360.0000000000001" width="20" height="20" as="geometry" />
        </mxCell>
        <mxCell id="dSflc-zfxmTfq78oVU8J-309" value="W4" style="fillColor=#23445D;strokeColor=#FFFFFF;strokeWidth=2;fontColor=#FFFFFF;fontStyle=1;fontSize=10;" parent="1" vertex="1">
          <mxGeometry x="1226.5000000000018" y="360.0000000000001" width="20" height="20" as="geometry" />
        </mxCell>
        <mxCell id="dSflc-zfxmTfq78oVU8J-310" value="Month 7" style="fillColor=#23445D;strokeColor=#FFFFFF;strokeWidth=2;fontColor=#FFFFFF;fontStyle=1" parent="1" vertex="1">
          <mxGeometry x="1166.5" y="340" width="80" height="20" as="geometry" />
        </mxCell>
        <mxCell id="dSflc-zfxmTfq78oVU8J-311" value="W1" style="fillColor=#23445D;strokeColor=#FFFFFF;strokeWidth=2;fontColor=#FFFFFF;fontStyle=1;fontSize=10;" parent="1" vertex="1">
          <mxGeometry x="1246.5000000000018" y="360.0000000000001" width="20" height="20" as="geometry" />
        </mxCell>
        <mxCell id="dSflc-zfxmTfq78oVU8J-312" value="W2" style="fillColor=#23445D;strokeColor=#FFFFFF;strokeWidth=2;fontColor=#FFFFFF;fontStyle=1;fontSize=10;" parent="1" vertex="1">
          <mxGeometry x="1266.5000000000018" y="360.0000000000001" width="20" height="20" as="geometry" />
        </mxCell>
        <mxCell id="dSflc-zfxmTfq78oVU8J-313" value="W3" style="fillColor=#23445D;strokeColor=#FFFFFF;strokeWidth=2;fontColor=#FFFFFF;fontStyle=1;fontSize=10;" parent="1" vertex="1">
          <mxGeometry x="1286.5000000000018" y="360.0000000000001" width="20" height="20" as="geometry" />
        </mxCell>
        <mxCell id="dSflc-zfxmTfq78oVU8J-314" value="W4" style="fillColor=#23445D;strokeColor=#FFFFFF;strokeWidth=2;fontColor=#FFFFFF;fontStyle=1;fontSize=10;" parent="1" vertex="1">
          <mxGeometry x="1306.5000000000018" y="360.0000000000001" width="20" height="20" as="geometry" />
        </mxCell>
        <mxCell id="dSflc-zfxmTfq78oVU8J-315" value="Month 8" style="fillColor=#23445D;strokeColor=#FFFFFF;strokeWidth=2;fontColor=#FFFFFF;fontStyle=1" parent="1" vertex="1">
          <mxGeometry x="1246.5" y="340" width="80" height="20" as="geometry" />
        </mxCell>
        <mxCell id="dSflc-zfxmTfq78oVU8J-316" value="W1" style="fillColor=#23445D;strokeColor=#FFFFFF;strokeWidth=2;fontColor=#FFFFFF;fontStyle=1;fontSize=10;" parent="1" vertex="1">
          <mxGeometry x="1326.5000000000018" y="360.0000000000001" width="20" height="20" as="geometry" />
        </mxCell>
        <mxCell id="dSflc-zfxmTfq78oVU8J-317" value="W2" style="fillColor=#23445D;strokeColor=#FFFFFF;strokeWidth=2;fontColor=#FFFFFF;fontStyle=1;fontSize=10;" parent="1" vertex="1">
          <mxGeometry x="1346.5000000000018" y="360.0000000000001" width="20" height="20" as="geometry" />
        </mxCell>
        <mxCell id="dSflc-zfxmTfq78oVU8J-318" value="W3" style="fillColor=#23445D;strokeColor=#FFFFFF;strokeWidth=2;fontColor=#FFFFFF;fontStyle=1;fontSize=10;" parent="1" vertex="1">
          <mxGeometry x="1366.5000000000018" y="360.0000000000001" width="20" height="20" as="geometry" />
        </mxCell>
        <mxCell id="dSflc-zfxmTfq78oVU8J-319" value="W4" style="fillColor=#23445D;strokeColor=#FFFFFF;strokeWidth=2;fontColor=#FFFFFF;fontStyle=1;fontSize=10;" parent="1" vertex="1">
          <mxGeometry x="1386.5000000000018" y="360.0000000000001" width="20" height="20" as="geometry" />
        </mxCell>
        <mxCell id="dSflc-zfxmTfq78oVU8J-320" value="Month 9" style="fillColor=#23445D;strokeColor=#FFFFFF;strokeWidth=2;fontColor=#FFFFFF;fontStyle=1" parent="1" vertex="1">
          <mxGeometry x="1326.5" y="340" width="80" height="20" as="geometry" />
        </mxCell>
        <mxCell id="dSflc-zfxmTfq78oVU8J-321" value="W1" style="fillColor=#23445D;strokeColor=#FFFFFF;strokeWidth=2;fontColor=#FFFFFF;fontStyle=1;fontSize=10;" parent="1" vertex="1">
          <mxGeometry x="1406.5000000000018" y="360.0000000000001" width="20" height="20" as="geometry" />
        </mxCell>
        <mxCell id="dSflc-zfxmTfq78oVU8J-322" value="W2" style="fillColor=#23445D;strokeColor=#FFFFFF;strokeWidth=2;fontColor=#FFFFFF;fontStyle=1;fontSize=10;" parent="1" vertex="1">
          <mxGeometry x="1426.5000000000018" y="360.0000000000001" width="20" height="20" as="geometry" />
        </mxCell>
        <mxCell id="dSflc-zfxmTfq78oVU8J-323" value="W3" style="fillColor=#23445D;strokeColor=#FFFFFF;strokeWidth=2;fontColor=#FFFFFF;fontStyle=1;fontSize=10;" parent="1" vertex="1">
          <mxGeometry x="1446.5000000000018" y="360.0000000000001" width="20" height="20" as="geometry" />
        </mxCell>
        <mxCell id="dSflc-zfxmTfq78oVU8J-324" value="W4" style="fillColor=#23445D;strokeColor=#FFFFFF;strokeWidth=2;fontColor=#FFFFFF;fontStyle=1;fontSize=10;" parent="1" vertex="1">
          <mxGeometry x="1466.5000000000018" y="360.0000000000001" width="20" height="20" as="geometry" />
        </mxCell>
        <mxCell id="dSflc-zfxmTfq78oVU8J-325" value="Month 10" style="fillColor=#23445D;strokeColor=#FFFFFF;strokeWidth=2;fontColor=#FFFFFF;fontStyle=1" parent="1" vertex="1">
          <mxGeometry x="1406.5" y="340" width="80" height="20" as="geometry" />
        </mxCell>
        <mxCell id="dSflc-zfxmTfq78oVU8J-326" value="W1" style="fillColor=#23445D;strokeColor=#FFFFFF;strokeWidth=2;fontColor=#FFFFFF;fontStyle=1;fontSize=10;" parent="1" vertex="1">
          <mxGeometry x="1486.5000000000018" y="360.0000000000001" width="20" height="20" as="geometry" />
        </mxCell>
        <mxCell id="dSflc-zfxmTfq78oVU8J-327" value="W2" style="fillColor=#23445D;strokeColor=#FFFFFF;strokeWidth=2;fontColor=#FFFFFF;fontStyle=1;fontSize=10;" parent="1" vertex="1">
          <mxGeometry x="1506.5000000000018" y="360.0000000000001" width="20" height="20" as="geometry" />
        </mxCell>
        <mxCell id="dSflc-zfxmTfq78oVU8J-328" value="W3" style="fillColor=#23445D;strokeColor=#FFFFFF;strokeWidth=2;fontColor=#FFFFFF;fontStyle=1;fontSize=10;" parent="1" vertex="1">
          <mxGeometry x="1526.5000000000018" y="360.0000000000001" width="20" height="20" as="geometry" />
        </mxCell>
        <mxCell id="dSflc-zfxmTfq78oVU8J-329" value="W4" style="fillColor=#23445D;strokeColor=#FFFFFF;strokeWidth=2;fontColor=#FFFFFF;fontStyle=1;fontSize=10;" parent="1" vertex="1">
          <mxGeometry x="1546.5000000000018" y="360.0000000000001" width="20" height="20" as="geometry" />
        </mxCell>
        <mxCell id="dSflc-zfxmTfq78oVU8J-330" value="Month 11" style="fillColor=#23445D;strokeColor=#FFFFFF;strokeWidth=2;fontColor=#FFFFFF;fontStyle=1" parent="1" vertex="1">
          <mxGeometry x="1486.5" y="340" width="80" height="20" as="geometry" />
        </mxCell>
        <mxCell id="dSflc-zfxmTfq78oVU8J-331" value="W1" style="fillColor=#23445D;strokeColor=#FFFFFF;strokeWidth=2;fontColor=#FFFFFF;fontStyle=1;fontSize=10;" parent="1" vertex="1">
          <mxGeometry x="1566.5000000000018" y="360.0000000000001" width="20" height="20" as="geometry" />
        </mxCell>
        <mxCell id="dSflc-zfxmTfq78oVU8J-332" value="W2" style="fillColor=#23445D;strokeColor=#FFFFFF;strokeWidth=2;fontColor=#FFFFFF;fontStyle=1;fontSize=10;" parent="1" vertex="1">
          <mxGeometry x="1586.5000000000018" y="360.0000000000001" width="20" height="20" as="geometry" />
        </mxCell>
        <mxCell id="dSflc-zfxmTfq78oVU8J-333" value="W3" style="fillColor=#23445D;strokeColor=#FFFFFF;strokeWidth=2;fontColor=#FFFFFF;fontStyle=1;fontSize=10;" parent="1" vertex="1">
          <mxGeometry x="1606.5000000000018" y="360.0000000000001" width="20" height="20" as="geometry" />
        </mxCell>
        <mxCell id="dSflc-zfxmTfq78oVU8J-334" value="W4" style="fillColor=#23445D;strokeColor=#FFFFFF;strokeWidth=2;fontColor=#FFFFFF;fontStyle=1;fontSize=10;" parent="1" vertex="1">
          <mxGeometry x="1626.5000000000018" y="360.0000000000001" width="20" height="20" as="geometry" />
        </mxCell>
        <mxCell id="dSflc-zfxmTfq78oVU8J-335" value="Month 12" style="fillColor=#23445D;strokeColor=#FFFFFF;strokeWidth=2;fontColor=#FFFFFF;fontStyle=1" parent="1" vertex="1">
          <mxGeometry x="1566.5" y="340" width="80" height="20" as="geometry" />
        </mxCell>
        <mxCell id="dSflc-zfxmTfq78oVU8J-286" value="W1" style="fillColor=#23445D;strokeColor=#FFFFFF;strokeWidth=2;fontColor=#FFFFFF;fontStyle=1;fontSize=10;" parent="1" vertex="1">
          <mxGeometry x="846.5000000000018" y="360.0000000000001" width="20" height="20" as="geometry" />
        </mxCell>
        <mxCell id="dSflc-zfxmTfq78oVU8J-287" value="W2" style="fillColor=#23445D;strokeColor=#FFFFFF;strokeWidth=2;fontColor=#FFFFFF;fontStyle=1;fontSize=10;" parent="1" vertex="1">
          <mxGeometry x="866.5000000000018" y="360.0000000000001" width="20" height="20" as="geometry" />
        </mxCell>
        <mxCell id="dSflc-zfxmTfq78oVU8J-288" value="W3" style="fillColor=#23445D;strokeColor=#FFFFFF;strokeWidth=2;fontColor=#FFFFFF;fontStyle=1;fontSize=10;" parent="1" vertex="1">
          <mxGeometry x="886.5000000000018" y="360.0000000000001" width="20" height="20" as="geometry" />
        </mxCell>
        <mxCell id="dSflc-zfxmTfq78oVU8J-289" value="W4" style="fillColor=#23445D;strokeColor=#FFFFFF;strokeWidth=2;fontColor=#FFFFFF;fontStyle=1;fontSize=10;" parent="1" vertex="1">
          <mxGeometry x="906.5000000000018" y="360.0000000000001" width="20" height="20" as="geometry" />
        </mxCell>
        <mxCell id="dSflc-zfxmTfq78oVU8J-290" value="Month 3" style="fillColor=#23445D;strokeColor=#FFFFFF;strokeWidth=2;fontColor=#FFFFFF;fontStyle=1" parent="1" vertex="1">
          <mxGeometry x="846.5" y="340" width="80" height="20" as="geometry" />
        </mxCell>
        <mxCell id="dSflc-zfxmTfq78oVU8J-282" value="W1" style="fillColor=#23445D;strokeColor=#FFFFFF;strokeWidth=2;fontColor=#FFFFFF;fontStyle=1;fontSize=10;" parent="1" vertex="1">
          <mxGeometry x="766.5000000000018" y="360.0000000000001" width="20" height="20" as="geometry" />
        </mxCell>
        <mxCell id="dSflc-zfxmTfq78oVU8J-283" value="W2" style="fillColor=#23445D;strokeColor=#FFFFFF;strokeWidth=2;fontColor=#FFFFFF;fontStyle=1;fontSize=10;" parent="1" vertex="1">
          <mxGeometry x="786.5000000000018" y="360.0000000000001" width="20" height="20" as="geometry" />
        </mxCell>
        <mxCell id="dSflc-zfxmTfq78oVU8J-284" value="W3" style="fillColor=#23445D;strokeColor=#FFFFFF;strokeWidth=2;fontColor=#FFFFFF;fontStyle=1;fontSize=10;" parent="1" vertex="1">
          <mxGeometry x="806.5000000000018" y="360.0000000000001" width="20" height="20" as="geometry" />
        </mxCell>
        <mxCell id="dSflc-zfxmTfq78oVU8J-285" value="W4" style="fillColor=#23445D;strokeColor=#FFFFFF;strokeWidth=2;fontColor=#FFFFFF;fontStyle=1;fontSize=10;" parent="1" vertex="1">
          <mxGeometry x="826.5000000000018" y="360.0000000000001" width="20" height="20" as="geometry" />
        </mxCell>
        <mxCell id="63" value="1" style="strokeColor=#DEEDFF;fillColor=#ADC3D9" parent="1" vertex="1">
          <mxGeometry x="246.5" y="380" width="40" height="20" as="geometry" />
        </mxCell>
        <mxCell id="64" value="MVP Development" style="align=left;strokeColor=#DEEDFF;fillColor=#ADC3D9" parent="1" vertex="1">
          <mxGeometry x="286.5" y="380" width="320" height="20" as="geometry" />
        </mxCell>
        <mxCell id="65" value="32 Weeks" style="strokeColor=#DEEDFF;fillColor=#ADC3D9" parent="1" vertex="1">
          <mxGeometry x="606.5000000000018" y="380" width="80.00000000000028" height="20" as="geometry" />
        </mxCell>
        <mxCell id="68" value="" style="strokeColor=#DEEDFF" parent="1" vertex="1">
          <mxGeometry x="686.500000000002" y="380.0000000000002" width="20" height="520" as="geometry" />
        </mxCell>
        <mxCell id="69" value="2" style="strokeColor=#DEEDFF;fillColor=#CCE5FF" parent="1" vertex="1">
          <mxGeometry x="246.50000000000026" y="399.9999999999999" width="40" height="20" as="geometry" />
        </mxCell>
        <mxCell id="70" value="Cloud Infrastructure Setup" style="align=left;strokeColor=#DEEDFF;fillColor=#CCE5FF" parent="1" vertex="1">
          <mxGeometry x="286.5000000000002" y="399.9999999999999" width="319.9999999999998" height="20" as="geometry" />
        </mxCell>
        <mxCell id="71" value="29 Weeks" style="strokeColor=#DEEDFF;fillColor=#CCE5FF" parent="1" vertex="1">
          <mxGeometry x="606.500000000002" y="399.99999999999983" width="80.00000000000028" height="20" as="geometry" />
        </mxCell>
        <mxCell id="74" value="3" style="strokeColor=#DEEDFF" parent="1" vertex="1">
          <mxGeometry x="246.50000000000028" y="419.9999999999998" width="40" height="20" as="geometry" />
        </mxCell>
        <mxCell id="75" value="Design Architecture" style="align=left;strokeColor=#DEEDFF" parent="1" vertex="1">
          <mxGeometry x="286.5000000000003" y="419.9999999999998" width="319.9999999999997" height="20.000000000000014" as="geometry" />
        </mxCell>
        <mxCell id="76" value="4 Weeks" style="strokeColor=#DEEDFF" parent="1" vertex="1">
          <mxGeometry x="606.500000000002" y="419.9999999999997" width="80.00000000000028" height="20" as="geometry" />
        </mxCell>
        <mxCell id="79" value="4" style="strokeColor=#DEEDFF" parent="1" vertex="1">
          <mxGeometry x="246.5" y="440.00000000000017" width="40" height="20" as="geometry" />
        </mxCell>
        <mxCell id="80" value="Define Required Security Controls" style="align=left;strokeColor=#DEEDFF" parent="1" vertex="1">
          <mxGeometry x="286.5" y="440.00000000000017" width="320" height="20" as="geometry" />
        </mxCell>
        <mxCell id="81" value="4 Weeks" style="strokeColor=#DEEDFF" parent="1" vertex="1">
          <mxGeometry x="606.5000000000017" y="440.0000000000001" width="80.00000000000028" height="20" as="geometry" />
        </mxCell>
        <mxCell id="84" value="5" style="strokeColor=#DEEDFF" parent="1" vertex="1">
          <mxGeometry x="246.49999999999991" y="460.00000000000017" width="40" height="20" as="geometry" />
        </mxCell>
        <mxCell id="85" value="Deploy Healthcare Landing Zone/Control Implementations" style="align=left;strokeColor=#DEEDFF" parent="1" vertex="1">
          <mxGeometry x="286.4999999999999" y="460.00000000000017" width="320.0000000000001" height="20" as="geometry" />
        </mxCell>
        <mxCell id="86" value="6 Weeks" style="strokeColor=#DEEDFF" parent="1" vertex="1">
          <mxGeometry x="606.5000000000016" y="460.0000000000001" width="80.00000000000028" height="20" as="geometry" />
        </mxCell>
        <mxCell id="89" value="6" style="strokeColor=#DEEDFF" parent="1" vertex="1">
          <mxGeometry x="246.4999999999999" y="480.00000000000045" width="40" height="20" as="geometry" />
        </mxCell>
        <mxCell id="90" value="CI/CD Setup" style="align=left;strokeColor=#DEEDFF" parent="1" vertex="1">
          <mxGeometry x="286.4999999999999" y="480.00000000000045" width="320.0000000000001" height="20" as="geometry" />
        </mxCell>
        <mxCell id="91" value="2 Weeks" style="strokeColor=#DEEDFF" parent="1" vertex="1">
          <mxGeometry x="606.5000000000016" y="480.00000000000034" width="80.00000000000028" height="20" as="geometry" />
        </mxCell>
        <mxCell id="94" value="7" style="strokeColor=#DEEDFF" parent="1" vertex="1">
          <mxGeometry x="246.50000000000063" y="500.0000000000007" width="40" height="20" as="geometry" />
        </mxCell>
        <mxCell id="95" value="Deploy Development Enclave" style="align=left;strokeColor=#DEEDFF" parent="1" vertex="1">
          <mxGeometry x="286.5000000000006" y="500.0000000000007" width="319.9999999999994" height="20" as="geometry" />
        </mxCell>
        <mxCell id="96" value="2 Weeks" style="strokeColor=#DEEDFF" parent="1" vertex="1">
          <mxGeometry x="606.5000000000024" y="500.0000000000007" width="80.00000000000028" height="20" as="geometry" />
        </mxCell>
        <mxCell id="99" value="8" style="strokeColor=#DEEDFF" parent="1" vertex="1">
          <mxGeometry x="246.50000000000063" y="520.0000000000006" width="40" height="20" as="geometry" />
        </mxCell>
        <mxCell id="100" value="Deploy UAT Enclave" style="align=left;strokeColor=#DEEDFF" parent="1" vertex="1">
          <mxGeometry x="286.5000000000006" y="520.0000000000006" width="319.9999999999994" height="20" as="geometry" />
        </mxCell>
        <mxCell id="101" value="1 Week" style="strokeColor=#DEEDFF" parent="1" vertex="1">
          <mxGeometry x="606.5000000000024" y="520.0000000000006" width="80.00000000000028" height="20" as="geometry" />
        </mxCell>
        <mxCell id="109" value="10" style="strokeColor=#DEEDFF" parent="1" vertex="1">
          <mxGeometry x="246.50000000000028" y="560.000000000001" width="40" height="20" as="geometry" />
        </mxCell>
        <mxCell id="110" value="Hardening" style="align=left;strokeColor=#DEEDFF" parent="1" vertex="1">
          <mxGeometry x="286.5000000000003" y="560.000000000001" width="319.9999999999997" height="20" as="geometry" />
        </mxCell>
        <mxCell id="111" value="4 Weeks" style="strokeColor=#DEEDFF" parent="1" vertex="1">
          <mxGeometry x="606.500000000002" y="560.0000000000009" width="80.00000000000028" height="20" as="geometry" />
        </mxCell>
        <mxCell id="119" value="12" style="strokeColor=#DEEDFF" parent="1" vertex="1">
          <mxGeometry x="246.49999999999997" y="600.0000000000016" width="40" height="20" as="geometry" />
        </mxCell>
        <mxCell id="120" value="Admin Module" style="align=left;strokeColor=#DEEDFF" parent="1" vertex="1">
          <mxGeometry x="286.5" y="600.0000000000016" width="320" height="20" as="geometry" />
        </mxCell>
        <mxCell id="121" value="8 Weeks" style="strokeColor=#DEEDFF" parent="1" vertex="1">
          <mxGeometry x="606.5000000000017" y="600.0000000000015" width="80.00000000000028" height="20" as="geometry" />
        </mxCell>
        <mxCell id="124" value="13" style="strokeColor=#DEEDFF" parent="1" vertex="1">
          <mxGeometry x="246.5" y="620.0000000000014" width="40" height="20" as="geometry" />
        </mxCell>
        <mxCell id="125" value="Patient Experience Module" style="align=left;strokeColor=#DEEDFF" parent="1" vertex="1">
          <mxGeometry x="286.5" y="620.0000000000014" width="320" height="20" as="geometry" />
        </mxCell>
        <mxCell id="126" value="5 Weeks" style="strokeColor=#DEEDFF" parent="1" vertex="1">
          <mxGeometry x="606.5000000000017" y="620.0000000000014" width="80.00000000000028" height="20" as="geometry" />
        </mxCell>
        <mxCell id="129" value="14" style="strokeColor=#DEEDFF" parent="1" vertex="1">
          <mxGeometry x="246.49999999999972" y="640.0000000000018" width="40" height="20" as="geometry" />
        </mxCell>
        <mxCell id="130" value="Patient Reporting Module" style="align=left;strokeColor=#DEEDFF" parent="1" vertex="1">
          <mxGeometry x="286.4999999999997" y="640.0000000000018" width="320.0000000000003" height="20" as="geometry" />
        </mxCell>
        <mxCell id="131" value="4 Weeks" style="strokeColor=#DEEDFF" parent="1" vertex="1">
          <mxGeometry x="606.5000000000014" y="640.0000000000018" width="80.00000000000028" height="20" as="geometry" />
        </mxCell>
        <mxCell id="134" value="15" style="strokeColor=#DEEDFF;fillColor=#FFFFFF" parent="1" vertex="1">
          <mxGeometry x="246.49999999999963" y="660.0000000000018" width="40" height="20" as="geometry" />
        </mxCell>
        <mxCell id="135" value="Surgeon Experience Module" style="align=left;strokeColor=#DEEDFF;fillColor=#FFFFFF" parent="1" vertex="1">
          <mxGeometry x="286.49999999999966" y="660.0000000000018" width="320.00000000000034" height="20" as="geometry" />
        </mxCell>
        <mxCell id="136" value="5 Weeks" style="strokeColor=#DEEDFF;fillColor=#FFFFFF" parent="1" vertex="1">
          <mxGeometry x="606.5000000000014" y="660.0000000000018" width="80.00000000000028" height="20" as="geometry" />
        </mxCell>
        <mxCell id="144" value="17" style="strokeColor=#DEEDFF" parent="1" vertex="1">
          <mxGeometry x="246.500000000001" y="700.0000000000023" width="40" height="20" as="geometry" />
        </mxCell>
        <mxCell id="145" value="Interfaces Module" style="align=left;strokeColor=#DEEDFF" parent="1" vertex="1">
          <mxGeometry x="286.500000000001" y="700.0000000000023" width="319.999999999999" height="20" as="geometry" />
        </mxCell>
        <mxCell id="146" value="8 Weeks" style="strokeColor=#DEEDFF" parent="1" vertex="1">
          <mxGeometry x="606.5000000000027" y="700.0000000000023" width="80.00000000000028" height="20" as="geometry" />
        </mxCell>
        <mxCell id="149" value="18" style="strokeColor=#DEEDFF" parent="1" vertex="1">
          <mxGeometry x="246.50000000000102" y="720.0000000000022" width="40" height="20" as="geometry" />
        </mxCell>
        <mxCell id="150" value="ADA Compliance" style="align=left;strokeColor=#DEEDFF" parent="1" vertex="1">
          <mxGeometry x="286.500000000001" y="720.0000000000022" width="319.999999999999" height="20" as="geometry" />
        </mxCell>
        <mxCell id="151" value="6 Weeks" style="strokeColor=#DEEDFF" parent="1" vertex="1">
          <mxGeometry x="606.5000000000027" y="720.000000000002" width="80.00000000000028" height="20" as="geometry" />
        </mxCell>
        <mxCell id="154" value="19" style="strokeColor=#DEEDFF" parent="1" vertex="1">
          <mxGeometry x="246.50000000000074" y="740.0000000000025" width="40" height="20" as="geometry" />
        </mxCell>
        <mxCell id="155" value="Multi-Language Support" style="align=left;strokeColor=#DEEDFF" parent="1" vertex="1">
          <mxGeometry x="286.50000000000074" y="740.0000000000025" width="319.99999999999926" height="20" as="geometry" />
        </mxCell>
        <mxCell id="156" value="6 Weeks" style="strokeColor=#DEEDFF" parent="1" vertex="1">
          <mxGeometry x="606.5000000000025" y="740.0000000000025" width="80.00000000000028" height="20" as="geometry" />
        </mxCell>
        <mxCell id="164" value="21" style="strokeColor=#DEEDFF" parent="1" vertex="1">
          <mxGeometry x="246.50000000000065" y="780.0000000000028" width="40" height="20" as="geometry" />
        </mxCell>
        <mxCell id="165" value="Release 1" style="align=left;strokeColor=#DEEDFF" parent="1" vertex="1">
          <mxGeometry x="286.5000000000007" y="780.0000000000028" width="319.9999999999993" height="20" as="geometry" />
        </mxCell>
        <mxCell id="166" value="1 Week" style="strokeColor=#DEEDFF" parent="1" vertex="1">
          <mxGeometry x="606.5000000000024" y="780.0000000000027" width="80.00000000000028" height="20" as="geometry" />
        </mxCell>
        <mxCell id="169" value="22" style="strokeColor=#DEEDFF" parent="1" vertex="1">
          <mxGeometry x="246.50000000000136" y="800.0000000000031" width="40" height="20" as="geometry" />
        </mxCell>
        <mxCell id="170" value="Release 2" style="align=left;strokeColor=#DEEDFF" parent="1" vertex="1">
          <mxGeometry x="286.50000000000136" y="800.0000000000031" width="319.99999999999864" height="20" as="geometry" />
        </mxCell>
        <mxCell id="171" value="1 Week" style="strokeColor=#DEEDFF" parent="1" vertex="1">
          <mxGeometry x="606.5000000000032" y="800.000000000003" width="80.00000000000028" height="20" as="geometry" />
        </mxCell>
        <mxCell id="174" value="23" style="strokeColor=#DEEDFF" parent="1" vertex="1">
          <mxGeometry x="246.5000000000014" y="820.000000000003" width="40" height="20" as="geometry" />
        </mxCell>
        <mxCell id="175" value="Release 3" style="align=left;strokeColor=#DEEDFF" parent="1" vertex="1">
          <mxGeometry x="286.50000000000136" y="820.000000000003" width="319.99999999999864" height="20" as="geometry" />
        </mxCell>
        <mxCell id="176" value="1 Week" style="strokeColor=#DEEDFF" parent="1" vertex="1">
          <mxGeometry x="606.5000000000032" y="820.000000000003" width="80.00000000000028" height="20" as="geometry" />
        </mxCell>
        <mxCell id="179" value="24" style="strokeColor=#DEEDFF" parent="1" vertex="1">
          <mxGeometry x="246.5000000000011" y="840.0000000000034" width="40" height="20" as="geometry" />
        </mxCell>
        <mxCell id="180" value="Release 4" style="align=left;strokeColor=#DEEDFF" parent="1" vertex="1">
          <mxGeometry x="286.50000000000114" y="840.0000000000034" width="319.99999999999886" height="20" as="geometry" />
        </mxCell>
        <mxCell id="181" value="1 Week" style="strokeColor=#DEEDFF" parent="1" vertex="1">
          <mxGeometry x="606.5000000000028" y="840.0000000000033" width="80.00000000000028" height="20" as="geometry" />
        </mxCell>
        <mxCell id="184" value="25" style="strokeColor=#DEEDFF" parent="1" vertex="1">
          <mxGeometry x="246.50000000000102" y="860.0000000000034" width="40" height="20" as="geometry" />
        </mxCell>
        <mxCell id="185" value="Go-Live" style="align=left;strokeColor=#DEEDFF" parent="1" vertex="1">
          <mxGeometry x="286.500000000001" y="860.0000000000034" width="319.999999999999" height="20" as="geometry" />
        </mxCell>
        <mxCell id="186" value="2 Weeks" style="strokeColor=#DEEDFF" parent="1" vertex="1">
          <mxGeometry x="606.5000000000027" y="860.0000000000033" width="80.00000000000028" height="20" as="geometry" />
        </mxCell>
        <mxCell id="194" value="" style="strokeColor=#DEEDFF" parent="1" vertex="1">
          <mxGeometry x="706.500000000002" y="380.00000000000387" width="20" height="520" as="geometry" />
        </mxCell>
        <mxCell id="195" value="" style="strokeColor=#DEEDFF" parent="1" vertex="1">
          <mxGeometry x="726.500000000002" y="380.00000000000387" width="20" height="520" as="geometry" />
        </mxCell>
        <mxCell id="196" value="" style="strokeColor=#DEEDFF" parent="1" vertex="1">
          <mxGeometry x="746.500000000002" y="380.00000000000387" width="20" height="520" as="geometry" />
        </mxCell>
        <mxCell id="200" value="" style="strokeColor=#DEEDFF" parent="1" vertex="1">
          <mxGeometry x="826.500000000002" y="380.0000000000075" width="20" height="520" as="geometry" />
        </mxCell>
        <mxCell id="201" value="" style="strokeColor=#DEEDFF" parent="1" vertex="1">
          <mxGeometry x="846.5000000000016" y="380.0000000000075" width="20" height="520" as="geometry" />
        </mxCell>
        <mxCell id="202" value="" style="strokeColor=#DEEDFF" parent="1" vertex="1">
          <mxGeometry x="866.5000000000016" y="380.00000000001114" width="20" height="520" as="geometry" />
        </mxCell>
        <mxCell id="204" value="" style="strokeColor=#DEEDFF" parent="1" vertex="1">
          <mxGeometry x="906.5000000000016" y="380.00000000001114" width="20" height="520" as="geometry" />
        </mxCell>
        <mxCell id="207" value="" style="strokeColor=#DEEDFF" parent="1" vertex="1">
          <mxGeometry x="966.5000000000018" y="380.0000000000148" width="20" height="520" as="geometry" />
        </mxCell>
        <mxCell id="208" value="" style="strokeColor=#DEEDFF" parent="1" vertex="1">
          <mxGeometry x="986.5000000000018" y="380.0000000000148" width="20" height="520" as="geometry" />
        </mxCell>
        <mxCell id="209" value="" style="strokeColor=#DEEDFF" parent="1" vertex="1">
          <mxGeometry x="1006.5000000000018" y="380.0000000000002" width="20" height="520" as="geometry" />
        </mxCell>
        <mxCell id="210" value="" style="strokeColor=#DEEDFF" parent="1" vertex="1">
          <mxGeometry x="1026.5000000000018" y="380.00000000000387" width="20" height="520" as="geometry" />
        </mxCell>
        <mxCell id="214" value="" style="strokeColor=#DEEDFF" parent="1" vertex="1">
          <mxGeometry x="1106.5000000000018" y="380.0000000000184" width="20" height="520" as="geometry" />
        </mxCell>
        <mxCell id="215" value="" style="strokeColor=#DEEDFF" parent="1" vertex="1">
          <mxGeometry x="1126.5000000000018" y="380.0000000000184" width="20" height="520" as="geometry" />
        </mxCell>
        <mxCell id="216" value="" style="strokeColor=#DEEDFF" parent="1" vertex="1">
          <mxGeometry x="1146.5000000000018" y="380.0000000000184" width="20" height="520" as="geometry" />
        </mxCell>
        <mxCell id="217" value="" style="strokeColor=#DEEDFF" parent="1" vertex="1">
          <mxGeometry x="1166.500000000002" y="380.0000000000184" width="20" height="520" as="geometry" />
        </mxCell>
        <mxCell id="218" value="" style="strokeColor=#DEEDFF" parent="1" vertex="1">
          <mxGeometry x="1186.500000000002" y="380.00000000002206" width="20" height="520" as="geometry" />
        </mxCell>
        <mxCell id="221" value="" style="strokeColor=#DEEDFF" parent="1" vertex="1">
          <mxGeometry x="1246.500000000002" y="380.00000000002206" width="20" height="520" as="geometry" />
        </mxCell>
        <mxCell id="222" value="" style="strokeColor=#DEEDFF" parent="1" vertex="1">
          <mxGeometry x="1266.500000000002" y="380.0000000000257" width="20" height="520" as="geometry" />
        </mxCell>
        <mxCell id="223" value="" style="strokeColor=#DEEDFF" parent="1" vertex="1">
          <mxGeometry x="1286.500000000002" y="380.0000000000257" width="20" height="520" as="geometry" />
        </mxCell>
        <mxCell id="224" value="" style="strokeColor=#DEEDFF" parent="1" vertex="1">
          <mxGeometry x="1306.500000000002" y="380.0000000000257" width="20" height="520" as="geometry" />
        </mxCell>
        <mxCell id="225" value="" style="strokeColor=#DEEDFF" parent="1" vertex="1">
          <mxGeometry x="1326.5000000000016" y="380.0000000000257" width="20" height="520" as="geometry" />
        </mxCell>
        <mxCell id="228" value="" style="strokeColor=#DEEDFF" parent="1" vertex="1">
          <mxGeometry x="1386.5000000000016" y="380.00000000002933" width="20" height="520" as="geometry" />
        </mxCell>
        <mxCell id="229" value="" style="strokeColor=#DEEDFF" parent="1" vertex="1">
          <mxGeometry x="1406.5000000000016" y="380.00000000002933" width="20" height="520" as="geometry" />
        </mxCell>
        <mxCell id="230" value="" style="strokeColor=#DEEDFF" parent="1" vertex="1">
          <mxGeometry x="1426.5000000000016" y="380.00000000003297" width="20" height="520" as="geometry" />
        </mxCell>
        <mxCell id="235" value="" style="strokeColor=#DEEDFF" parent="1" vertex="1">
          <mxGeometry x="1526.5000000000016" y="380.00000000002206" width="20" height="520" as="geometry" />
        </mxCell>
        <mxCell id="236" value="" style="strokeColor=#DEEDFF" parent="1" vertex="1">
          <mxGeometry x="1546.5000000000016" y="380.00000000002206" width="20" height="520" as="geometry" />
        </mxCell>
        <mxCell id="237" value="" style="strokeColor=#DEEDFF" parent="1" vertex="1">
          <mxGeometry x="1566.5000000000016" y="380.00000000003297" width="20" height="520" as="geometry" />
        </mxCell>
        <mxCell id="238" value="" style="strokeColor=#DEEDFF" parent="1" vertex="1">
          <mxGeometry x="1586.5000000000016" y="380.0000000000366" width="20" height="520" as="geometry" />
        </mxCell>
        <mxCell id="239" value="" style="strokeColor=#DEEDFF" parent="1" vertex="1">
          <mxGeometry x="1606.5000000000016" y="380.0000000000366" width="20" height="520" as="geometry" />
        </mxCell>
        <mxCell id="2" value="Task Name" style="fillColor=#23445D;strokeColor=#FFFFFF;strokeWidth=2;fontColor=#FFFFFF;fontStyle=1" parent="1" vertex="1">
          <mxGeometry x="286.5" y="340" width="320" height="40" as="geometry" />
        </mxCell>
        <mxCell id="3" value="" style="fillColor=#23445D;strokeColor=#FFFFFF;strokeWidth=2;fontColor=#FFFFFF;fontStyle=1" parent="1" vertex="1">
          <mxGeometry x="246.5" y="340" width="40" height="40" as="geometry" />
        </mxCell>
        <mxCell id="4" value="Month 1" style="fillColor=#23445D;strokeColor=#FFFFFF;strokeWidth=2;fontColor=#FFFFFF;fontStyle=1" parent="1" vertex="1">
          <mxGeometry x="686.5" y="340" width="80" height="20" as="geometry" />
        </mxCell>
        <mxCell id="5" value="W1" style="fillColor=#23445D;strokeColor=#FFFFFF;strokeWidth=2;fontColor=#FFFFFF;fontStyle=1;fontSize=10;" parent="1" vertex="1">
          <mxGeometry x="686.5000000000018" y="360.0000000000001" width="20" height="20" as="geometry" />
        </mxCell>
        <mxCell id="6" value="W2" style="fillColor=#23445D;strokeColor=#FFFFFF;strokeWidth=2;fontColor=#FFFFFF;fontStyle=1;fontSize=10;" parent="1" vertex="1">
          <mxGeometry x="706.5000000000018" y="360.0000000000001" width="20" height="20" as="geometry" />
        </mxCell>
        <mxCell id="7" value="W3" style="fillColor=#23445D;strokeColor=#FFFFFF;strokeWidth=2;fontColor=#FFFFFF;fontStyle=1;fontSize=10;" parent="1" vertex="1">
          <mxGeometry x="726.5000000000018" y="360.0000000000001" width="20" height="20" as="geometry" />
        </mxCell>
        <mxCell id="8" value="W4" style="fillColor=#23445D;strokeColor=#FFFFFF;strokeWidth=2;fontColor=#FFFFFF;fontStyle=1;fontSize=10;" parent="1" vertex="1">
          <mxGeometry x="746.5000000000018" y="360.0000000000001" width="20" height="20" as="geometry" />
        </mxCell>
        <mxCell id="12" value="Duration" style="fillColor=#23445D;strokeColor=#FFFFFF;strokeWidth=2;fontColor=#FFFFFF;fontStyle=1" parent="1" vertex="1">
          <mxGeometry x="606.5000000000018" y="340.00000000000006" width="80.00000000000006" height="40.00000000000001" as="geometry" />
        </mxCell>
        <mxCell id="242" value="" style="shape=mxgraph.flowchart.process;fillColor=#AE4132;strokeColor=#000000;strokeWidth=2;opacity=50" parent="1" vertex="1">
          <mxGeometry x="686.5" y="400" width="583.5" height="20" as="geometry" />
        </mxCell>
        <mxCell id="252" value="" style="shape=mxgraph.flowchart.process;fillColor=#AE4132;strokeColor=none;strokeWidth=2;opacity=50" parent="1" vertex="1">
          <mxGeometry x="686.5" y="420" width="83.5" height="20" as="geometry" />
        </mxCell>
        <mxCell id="254" value="" style="shape=mxgraph.flowchart.process;fillColor=#AE4132;strokeColor=#000000;strokeWidth=2;opacity=100" parent="1" vertex="1">
          <mxGeometry x="686.5" y="380" width="643.5" height="20" as="geometry" />
        </mxCell>
        <mxCell id="dSflc-zfxmTfq78oVU8J-281" value="Month 2" style="fillColor=#23445D;strokeColor=#FFFFFF;strokeWidth=2;fontColor=#FFFFFF;fontStyle=1" parent="1" vertex="1">
          <mxGeometry x="766.5" y="340" width="80" height="20" as="geometry" />
        </mxCell>
        <mxCell id="dSflc-zfxmTfq78oVU8J-357" value="9" style="strokeColor=#DEEDFF" parent="1" vertex="1">
          <mxGeometry x="246.50000000000028" y="540.000000000001" width="40" height="20" as="geometry" />
        </mxCell>
        <mxCell id="dSflc-zfxmTfq78oVU8J-358" value="Deploy Production Enclave" style="align=left;strokeColor=#DEEDFF" parent="1" vertex="1">
          <mxGeometry x="286.5000000000003" y="540.000000000001" width="319.9999999999997" height="20" as="geometry" />
        </mxCell>
        <mxCell id="dSflc-zfxmTfq78oVU8J-359" value="1 Week" style="strokeColor=#DEEDFF" parent="1" vertex="1">
          <mxGeometry x="606.500000000002" y="540.0000000000009" width="80.00000000000028" height="20" as="geometry" />
        </mxCell>
        <mxCell id="dSflc-zfxmTfq78oVU8J-362" value="11" style="strokeColor=#DEEDFF;fillColor=#CCE5FF" parent="1" vertex="1">
          <mxGeometry x="246.4999999999996" y="580.000000000002" width="40" height="20" as="geometry" />
        </mxCell>
        <mxCell id="dSflc-zfxmTfq78oVU8J-363" value="Application Development" style="align=left;strokeColor=#DEEDFF;fillColor=#CCE5FF" parent="1" vertex="1">
          <mxGeometry x="286.4999999999996" y="580.000000000002" width="320.0000000000004" height="20" as="geometry" />
        </mxCell>
        <mxCell id="dSflc-zfxmTfq78oVU8J-364" value="17 Weeks" style="strokeColor=#DEEDFF;fillColor=#CCE5FF" parent="1" vertex="1">
          <mxGeometry x="606.5000000000014" y="580.000000000002" width="80.00000000000028" height="20" as="geometry" />
        </mxCell>
        <mxCell id="dSflc-zfxmTfq78oVU8J-367" value="16" style="strokeColor=#DEEDFF" parent="1" vertex="1">
          <mxGeometry x="246.500000000001" y="680.0000000000023" width="40" height="20" as="geometry" />
        </mxCell>
        <mxCell id="dSflc-zfxmTfq78oVU8J-368" value="Surgeon Reporting Module" style="align=left;strokeColor=#DEEDFF" parent="1" vertex="1">
          <mxGeometry x="286.500000000001" y="680.0000000000023" width="319.999999999999" height="20" as="geometry" />
        </mxCell>
        <mxCell id="dSflc-zfxmTfq78oVU8J-369" value="4 Weeks" style="strokeColor=#DEEDFF;fillColor=#FFFFFF" parent="1" vertex="1">
          <mxGeometry x="606.5000000000014" y="680.0000000000018" width="80.00000000000028" height="20" as="geometry" />
        </mxCell>
        <mxCell id="dSflc-zfxmTfq78oVU8J-377" value="" style="shape=mxgraph.flowchart.process;fillColor=#AE4132;strokeColor=none;strokeWidth=2;opacity=50" parent="1" vertex="1">
          <mxGeometry x="686.5" y="440" width="83.5" height="20" as="geometry" />
        </mxCell>
        <mxCell id="dSflc-zfxmTfq78oVU8J-378" value="" style="shape=mxgraph.flowchart.process;fillColor=#AE4132;strokeColor=none;strokeWidth=2;opacity=50" parent="1" vertex="1">
          <mxGeometry x="766.5" y="460" width="123.5" height="20" as="geometry" />
        </mxCell>
        <mxCell id="dSflc-zfxmTfq78oVU8J-379" value="" style="shape=mxgraph.flowchart.process;fillColor=#AE4132;strokeColor=none;strokeWidth=2;opacity=50" parent="1" vertex="1">
          <mxGeometry x="846.5" y="480" width="43.5" height="20" as="geometry" />
        </mxCell>
        <mxCell id="dSflc-zfxmTfq78oVU8J-380" value="" style="shape=mxgraph.flowchart.process;fillColor=#AE4132;strokeColor=none;strokeWidth=2;opacity=50" parent="1" vertex="1">
          <mxGeometry x="886.5" y="500" width="43.5" height="20" as="geometry" />
        </mxCell>
        <mxCell id="dSflc-zfxmTfq78oVU8J-381" value="" style="shape=mxgraph.flowchart.process;fillColor=#AE4132;strokeColor=none;strokeWidth=2;opacity=50" parent="1" vertex="1">
          <mxGeometry x="906.5" y="600" width="163.5" height="20" as="geometry" />
        </mxCell>
        <mxCell id="dSflc-zfxmTfq78oVU8J-382" value="" style="shape=mxgraph.flowchart.process;fillColor=#AE4132;strokeColor=none;strokeWidth=2;opacity=50" parent="1" vertex="1">
          <mxGeometry x="906.5" y="740" width="123.5" height="20" as="geometry" />
        </mxCell>
        <mxCell id="dSflc-zfxmTfq78oVU8J-383" value="" style="shape=mxgraph.flowchart.process;fillColor=#AE4132;strokeColor=none;strokeWidth=2;opacity=50" parent="1" vertex="1">
          <mxGeometry x="966.5" y="620" width="103.5" height="20" as="geometry" />
        </mxCell>
        <mxCell id="dSflc-zfxmTfq78oVU8J-384" value="" style="shape=mxgraph.flowchart.process;fillColor=#AE4132;strokeColor=none;strokeWidth=2;opacity=50" parent="1" vertex="1">
          <mxGeometry x="1026.5" y="640" width="83.5" height="20" as="geometry" />
        </mxCell>
        <mxCell id="dSflc-zfxmTfq78oVU8J-385" value="" style="shape=mxgraph.flowchart.process;fillColor=#AE4132;strokeColor=none;strokeWidth=2;opacity=50" parent="1" vertex="1">
          <mxGeometry x="1100" y="660" width="113.5" height="20" as="geometry" />
        </mxCell>
        <mxCell id="dSflc-zfxmTfq78oVU8J-386" value="" style="shape=mxgraph.flowchart.process;fillColor=#AE4132;strokeColor=none;strokeWidth=2;opacity=50" parent="1" vertex="1">
          <mxGeometry x="1166.5" y="680" width="83.5" height="20" as="geometry" />
        </mxCell>
        <mxCell id="dSflc-zfxmTfq78oVU8J-387" value="" style="shape=mxgraph.flowchart.process;fillColor=#AE4132;strokeColor=none;strokeWidth=2;opacity=50" parent="1" vertex="1">
          <mxGeometry x="926.5" y="700" width="167" height="20" as="geometry" />
        </mxCell>
        <mxCell id="dSflc-zfxmTfq78oVU8J-388" value="" style="shape=mxgraph.flowchart.process;fillColor=#AE4132;strokeColor=none;strokeWidth=2;opacity=50" parent="1" vertex="1">
          <mxGeometry x="1080" y="720" width="130" height="20" as="geometry" />
        </mxCell>
        <mxCell id="dSflc-zfxmTfq78oVU8J-389" value="" style="shape=mxgraph.flowchart.process;fillColor=#AE4132;strokeColor=none;strokeWidth=2;opacity=50" parent="1" vertex="1">
          <mxGeometry x="1064.75" y="520" width="23.5" height="20" as="geometry" />
        </mxCell>
        <mxCell id="dSflc-zfxmTfq78oVU8J-390" value="" style="shape=mxgraph.flowchart.process;fillColor=#AE4132;strokeColor=none;strokeWidth=2;opacity=50" parent="1" vertex="1">
          <mxGeometry x="1224.75" y="540" width="23.5" height="20" as="geometry" />
        </mxCell>
        <mxCell id="dSflc-zfxmTfq78oVU8J-391" value="" style="shape=mxgraph.flowchart.process;fillColor=#AE4132;strokeColor=#000000;strokeWidth=2;opacity=50" parent="1" vertex="1">
          <mxGeometry x="906.5" y="580" width="343.5" height="20" as="geometry" />
        </mxCell>
        <mxCell id="dSflc-zfxmTfq78oVU8J-392" value="20" style="strokeColor=#DEEDFF;fillColor=#CCE5FF" parent="1" vertex="1">
          <mxGeometry x="246.4999999999996" y="760.000000000002" width="40" height="20" as="geometry" />
        </mxCell>
        <mxCell id="dSflc-zfxmTfq78oVU8J-393" value="Milestones" style="align=left;strokeColor=#DEEDFF;fillColor=#CCE5FF" parent="1" vertex="1">
          <mxGeometry x="286.4999999999996" y="760.000000000002" width="320.0000000000004" height="20" as="geometry" />
        </mxCell>
        <mxCell id="dSflc-zfxmTfq78oVU8J-394" value="" style="strokeColor=#DEEDFF;fillColor=#CCE5FF" parent="1" vertex="1">
          <mxGeometry x="606.5000000000014" y="760.000000000002" width="80.00000000000028" height="20" as="geometry" />
        </mxCell>
        <mxCell id="dSflc-zfxmTfq78oVU8J-397" value="" style="shape=mxgraph.flowchart.process;fillColor=#AE4132;strokeColor=none;strokeWidth=2;opacity=50" parent="1" vertex="1">
          <mxGeometry x="1183" y="560" width="87" height="20" as="geometry" />
        </mxCell>
        <mxCell id="dSflc-zfxmTfq78oVU8J-399" value="" style="shape=mxgraph.flowchart.process;fillColor=#e1d5e7;strokeColor=#9673a6;strokeWidth=2;opacity=50" parent="1" vertex="1">
          <mxGeometry x="964.75" y="780" width="23.5" height="20" as="geometry" />
        </mxCell>
        <mxCell id="dSflc-zfxmTfq78oVU8J-400" value="" style="shape=mxgraph.flowchart.process;fillColor=#e1d5e7;strokeColor=#9673a6;strokeWidth=2;opacity=50" parent="1" vertex="1">
          <mxGeometry x="1064.75" y="800" width="23.5" height="20" as="geometry" />
        </mxCell>
        <mxCell id="dSflc-zfxmTfq78oVU8J-401" value="" style="shape=mxgraph.flowchart.process;fillColor=#e1d5e7;strokeColor=#9673a6;strokeWidth=2;opacity=50" parent="1" vertex="1">
          <mxGeometry x="1143" y="820" width="23.5" height="20" as="geometry" />
        </mxCell>
        <mxCell id="dSflc-zfxmTfq78oVU8J-402" value="" style="shape=mxgraph.flowchart.process;fillColor=#e1d5e7;strokeColor=#9673a6;strokeWidth=2;opacity=50" parent="1" vertex="1">
          <mxGeometry x="1244.75" y="840" width="23.5" height="20" as="geometry" />
        </mxCell>
        <mxCell id="dSflc-zfxmTfq78oVU8J-403" value="" style="shape=mxgraph.flowchart.process;fillColor=#e1d5e7;strokeColor=#9673a6;strokeWidth=2;opacity=50" parent="1" vertex="1">
          <mxGeometry x="1270" y="860" width="60" height="20" as="geometry" />
        </mxCell>
        <mxCell id="dSflc-zfxmTfq78oVU8J-404" value="26" style="strokeColor=#DEEDFF;fillColor=#ADC3D9" parent="1" vertex="1">
          <mxGeometry x="246.5" y="880" width="40" height="20" as="geometry" />
        </mxCell>
        <mxCell id="dSflc-zfxmTfq78oVU8J-405" value="Warranty Period" style="align=left;strokeColor=#DEEDFF;fillColor=#ADC3D9" parent="1" vertex="1">
          <mxGeometry x="286.5" y="880" width="320" height="20" as="geometry" />
        </mxCell>
        <mxCell id="dSflc-zfxmTfq78oVU8J-406" value="16 Weeks" style="strokeColor=#DEEDFF;fillColor=#ADC3D9" parent="1" vertex="1">
          <mxGeometry x="606.5000000000018" y="880" width="80.00000000000028" height="20" as="geometry" />
        </mxCell>
        <mxCell id="dSflc-zfxmTfq78oVU8J-407" value="" style="shape=mxgraph.flowchart.process;fillColor=#AE4132;strokeColor=#000000;strokeWidth=2;opacity=100" parent="1" vertex="1">
          <mxGeometry x="1330" y="880" width="320" height="20" as="geometry" />
        </mxCell>
      </root>
    </mxGraphModel>
  </diagram>
</mxfile>
